<svg width="50" height="50" viewBox="0 0 50 50" fill="none" xmlns="http://www.w3.org/2000/svg">
<path d="M15.625 15C14.6304 15 13.6766 15.3951 12.9733 16.0983C12.2701 16.8016 11.875 17.7554 11.875 18.75V20.3375C12.8176 20.4408 13.7017 20.8458 14.3954 21.4923C15.0892 22.1387 15.5555 22.992 15.725 23.925L16.3188 27.1875H33.8562L34.45 23.925C34.6143 23.0219 35.0569 22.1927 35.7159 21.5537C36.3749 20.9146 37.2172 20.4977 38.125 20.3612V18.75C38.125 17.7554 37.7299 16.8016 37.0267 16.0983C36.3234 15.3951 35.3696 15 34.375 15H15.625Z" fill="#AF0D71"/>
<path d="M13.5737 24.3164C13.5253 24.0271 13.4199 23.7503 13.2636 23.5021C13.1072 23.2539 12.9031 23.0393 12.663 22.8707C12.4229 22.7022 12.1518 22.583 11.8653 22.5202C11.5787 22.4574 11.2826 22.4522 10.994 22.505C10.7055 22.5577 10.4303 22.6672 10.1845 22.8272C9.93865 22.9873 9.72711 23.1946 9.56214 23.4371C9.39718 23.6797 9.28208 23.9526 9.22356 24.24C9.16504 24.5274 9.16425 24.8236 9.22125 25.1114L10.2887 30.9326C10.4167 31.6316 10.7581 32.2737 11.266 32.7707C11.774 33.2676 12.4234 33.5949 13.125 33.7076V36.2501H15.625V33.7501H34.375V36.2501H36.875V33.7301C37.6115 33.6507 38.3027 33.3354 38.8455 32.8313C39.3884 32.3272 39.7538 31.6613 39.8875 30.9326L40.9537 25.1114C41.015 24.822 41.0176 24.5234 40.9614 24.233C40.9053 23.9426 40.7915 23.6665 40.6268 23.4209C40.462 23.1752 40.2497 22.9651 40.0024 22.803C39.7551 22.6408 39.4778 22.5299 39.1869 22.4767C38.8959 22.4235 38.5973 22.4293 38.3086 22.4935C38.0199 22.5577 37.7471 22.6792 37.5061 22.8507C37.2652 23.0222 37.0611 23.2403 36.9059 23.492C36.7507 23.7438 36.6475 24.0241 36.6025 24.3164L35.6825 29.3751H14.4925L13.5737 24.3164Z" fill="#AF0D71"/>
</svg>
