<svg width="32" height="36" viewBox="0 0 32 36" fill="none" xmlns="http://www.w3.org/2000/svg">
<path d="M25.1979 24.9601C25.1964 24.9515 25.1969 24.9431 25.1951 24.9345L24.3288 20.849L22.7281 21.3182L23.5678 25.2794C23.5713 25.2959 23.5816 25.3086 23.586 25.3247C22.9481 25.7485 22.5266 26.4722 22.5266 27.2955C22.5266 28.6023 23.586 29.6616 24.8927 29.6616C26.1995 29.6616 27.2589 28.6023 27.2589 27.2955C27.2589 26.0933 26.359 25.1113 25.1979 24.9601Z" fill="#99A0AB"/>
<path d="M22.6849 23.5229L19.9999 26.4379C19.7049 26.7579 19.2899 26.9429 18.8549 26.9429H10.85C10.825 26.7829 10.79 26.6279 10.735 26.4729C10.61 26.0979 10.4 25.7429 10.125 25.4479C9.85499 25.1479 9.50999 24.9079 9.13499 24.7429C8.76 24.5779 8.35 24.4929 7.94 24.4929C7.53 24.4929 7.11501 24.5779 6.74001 24.7429C6.37001 24.9079 6.02501 25.1479 5.75501 25.4479C5.47502 25.7429 5.27002 26.0979 5.14002 26.4729C5.01502 26.8529 4.97002 27.2529 5.02002 27.6329C5.11002 26.8679 5.46502 26.1779 5.99501 25.6929C6.53001 25.2029 7.23001 24.9329 7.94 24.9329C8.645 24.9329 9.34999 25.2029 9.87999 25.6929C10.245 26.0229 10.525 26.4579 10.695 26.9429H10.1908C9.89384 25.9754 9.00389 25.2674 7.93905 25.2674C6.63231 25.2674 5.57297 26.3267 5.57297 27.6335C5.57297 28.9403 6.63231 29.9997 7.93905 29.9997C9.02269 29.9997 9.92629 29.2669 10.2066 28.273H18.855C19.66 28.273 20.43 27.933 20.975 27.343L23.025 25.118L22.6849 23.5229Z" fill="#99A0AB"/>
<path d="M22.6247 20.828L24.2247 20.358L21.4627 7.30969L22.606 7.26344C22.6291 7.26344 22.6523 7.25879 22.6755 7.25414C22.8842 7.21244 23.0372 7.02229 23.0279 6.8043C23.0186 6.5585 22.8146 6.3684 22.5689 6.3777L21.2333 6.4287L21.234 6.4304C21.0594 6.11855 20.7021 5.94055 20.3348 6.0181C19.8848 6.1131 19.5998 6.5531 19.6948 7.00309L22.6247 20.828Z" fill="#99A0AB"/>
</svg>
