<svg width="32" height="36" viewBox="0 0 32 36" fill="none" xmlns="http://www.w3.org/2000/svg">
<path d="M26.6607 12.9564H25.0326L23.9821 9.74711C23.4307 8.10398 21.8813 7 20.1218 7H10.8256C9.06618 7 7.49055 8.10398 6.96534 9.74711L5.91492 12.9564H4.28676C3.57773 12.9564 3 13.5212 3 14.2144V14.9332C3 15.6264 3.57773 16.1913 4.28676 16.1913H4.73319C4.47059 17.3466 4.33929 18.5276 4.33929 19.7086V25.742C4.33929 26.4352 4.91702 27 5.62605 27H7.77941C8.48845 27 9.06618 26.4352 9.06618 25.742V23.8164H21.9338V25.742C21.9338 26.4352 22.5116 27 23.2206 27H25.3739C26.083 27 26.6607 26.4352 26.6607 25.742V19.6829C26.6607 18.5019 26.5294 17.3209 26.2668 16.1656H26.7132C27.4223 16.1656 28 15.6008 28 14.9076V14.1887C27.9475 13.5212 27.3697 12.9564 26.6607 12.9564ZM8.17332 14.2401L9.40756 10.4917C9.61765 9.87548 10.1954 9.4647 10.8256 9.4647H20.1218C20.7784 9.4647 21.3561 9.87548 21.5399 10.4917L22.7742 14.2401C22.8267 14.4198 22.6954 14.5738 22.5116 14.5738H8.43592C8.2521 14.5995 8.1208 14.4198 8.17332 14.2401ZM10.8519 20.3761H8.2521C7.80567 20.3761 7.46429 20.0424 7.46429 19.6059V18.3992C7.46429 17.9371 7.91071 17.552 8.3834 17.629L10.7994 18.0141C11.1145 18.0655 11.3771 18.2965 11.4559 18.6046L11.6397 19.4262C11.7447 19.914 11.3771 20.3761 10.8519 20.3761ZM23.4569 19.6059C23.4569 20.0424 23.1155 20.3761 22.6691 20.3761H20.0693C19.5704 20.3761 19.2027 19.914 19.3078 19.4519L19.4916 18.6303C19.5704 18.3222 19.8067 18.0911 20.1481 18.0398L22.5641 17.6547C23.0368 17.5777 23.4832 17.9371 23.4832 18.4249V19.6059H23.4569Z" fill="white"/>
</svg>
