<svg width="20" height="17" viewBox="0 0 20 17" fill="none" xmlns="http://www.w3.org/2000/svg">
<path d="M1.20012 3.09946H18.7999C19.4623 3.09946 20 2.5618 20 1.89934C20 1.23687 19.4623 0.699219 18.7999 0.699219H1.20012C0.537654 0.699219 0 1.23687 0 1.89934C0 2.5618 0.537054 3.09946 1.20012 3.09946Z" fill="white"/>
<path d="M18.7999 7.29993H1.20012C0.537654 7.29993 0 7.83758 0 8.50005C0 9.16251 0.537654 9.70017 1.20012 9.70017H18.7999C19.4623 9.70017 20 9.16251 20 8.50005C20 7.83758 19.4629 7.29993 18.7999 7.29993Z" fill="white"/>
<path d="M18.7999 13.9005H1.20012C0.537654 13.9005 0 14.4382 0 15.1006C0 15.7631 0.537654 16.3008 1.20012 16.3008H18.7999C19.4623 16.3008 20 15.7631 20 15.1006C20 14.4382 19.4629 13.9005 18.7999 13.9005Z" fill="white"/>
</svg>
