<svg width="50" height="50" viewBox="0 0 50 50" fill="none" xmlns="http://www.w3.org/2000/svg">
<path d="M22.8125 14.375C24.8836 14.375 26.5625 12.6961 26.5625 10.625C26.5625 8.55394 24.8836 6.875 22.8125 6.875C20.7414 6.875 19.0625 8.55394 19.0625 10.625C19.0625 12.6961 20.7414 14.375 22.8125 14.375Z" fill="#4789EB"/>
<path fill-rule="evenodd" clip-rule="evenodd" d="M18.4375 21.25C18.4375 18.8338 20.3962 16.875 22.8125 16.875C24.1069 16.875 25.2699 17.4371 26.0709 18.3305C26.8235 19.1699 27.3044 20.2643 28.1769 20.9783C29.6702 22.2 31.987 23.4375 35.3125 23.4375C36.1755 23.4375 36.875 24.137 36.875 25C36.875 25.863 36.1755 26.5625 35.3125 26.5625C32.0835 26.5625 29.5596 25.6201 27.6824 24.4571C27.4691 24.325 27.1875 24.4752 27.1875 24.7261V27.8125C27.1875 28.3302 27.6073 28.75 28.125 28.75H30.9724C32.8663 28.75 34.5975 29.82 35.4445 31.5139L38.7646 38.1542C39.2744 39.1736 38.8611 40.4131 37.8417 40.9229C36.7999 41.4439 35.5335 40.9996 35.0452 39.9419L32.5226 34.4761C32.4905 34.4064 32.4185 34.2506 32.3495 34.1011C32.2508 33.887 32.0365 33.75 31.8007 33.75C31.481 33.75 31.2184 33.9998 31.1818 34.3175C30.5907 39.4511 26.2296 43.4375 20.9375 43.4375C15.2421 43.4375 10.625 38.8205 10.625 33.125C10.625 28.2917 13.95 24.235 18.4375 23.1176V21.25ZM27.9386 34.7584C28.063 34.2231 27.626 33.75 27.0765 33.75H21.5625C19.8366 33.75 18.4375 32.3509 18.4375 30.625V27.732C18.4375 27.0788 17.7844 26.6313 17.2254 26.9691C15.1425 28.2277 13.75 30.5138 13.75 33.125C13.75 37.0945 16.968 40.3125 20.9375 40.3125C24.3451 40.3125 27.199 37.941 27.9386 34.7584Z" fill="#4789EB"/>
</svg>
